<svg xmlns="http://www.w3.org/2000/svg" viewBox="0 0 200 200">
  <title>monster11</title>
  <g id="Layer_2" data-name="Layer 2">
    <g id="Layer_1-2" data-name="Layer 1">
      <rect width="200" height="200" fill="#50a045"/>
      <ellipse cx="93.28" cy="183.56" rx="78.03" ry="9.03" fill="#231f20" opacity="0.2"/>
      <g>
        <path d="M15.15,72.27A26,26,0,0,0,35.47,103c14.08,2.86,41.08-.19,43.94-14.27S59.91,54.81,45.83,52A26,26,0,0,0,15.15,72.27Z" fill="#fff" opacity="0.5"/>
        <path d="M11,132.9A37.35,37.35,0,0,0,60.28,152c18.87-8.34,48-34.34,39.62-53.21s-51-23.46-69.83-15.11A37.35,37.35,0,0,0,11,132.9Z" fill="#fff" opacity="0.5"/>
      </g>
      <g>
        <path d="M179.5,72.27A26,26,0,0,1,159.18,103c-14.08,2.86-41.08-.19-43.94-14.27S134.74,54.81,148.82,52A26,26,0,0,1,179.5,72.27Z" fill="#fff" opacity="0.5"/>
        <path d="M183.64,132.9A37.36,37.36,0,0,1,134.37,152c-18.87-8.34-48-34.34-39.62-53.21s51-23.46,69.83-15.11A37.35,37.35,0,0,1,183.64,132.9Z" fill="#fff" opacity="0.5"/>
      </g>
      <rect x="54.59" y="13.9" width="78.62" height="145.34" rx="39.31" fill="#c6d033"/>
      <path d="M93.9,159.24h0c16.73-5.61,28.85-13.84,30.27-28.59v-73c0-21.71-1.68-35.72-30.27-43.73h0a39.31,39.31,0,0,1,39.31,39.31v66.72A39.31,39.31,0,0,1,93.9,159.24Z" fill="#b7b734"/>
      <path d="M132.13,45.54a8,8,0,1,1,0,16.09" fill="#231f20"/>
      <path d="M55.18,45.54a8,8,0,1,0,0,16.09" fill="#231f20"/>
      <polygon points="85.23 75.86 77.55 89.16 69.87 75.86 85.23 75.86" fill="#fff"/>
      <polygon points="101.77 75.86 94.09 89.16 86.41 75.86 101.77 75.86" fill="#fff"/>
      <polygon points="118.31 75.86 110.63 89.16 102.95 75.86 118.31 75.86" fill="#fff"/>
      <polygon points="134.85 75.86 127.17 89.16 119.49 75.86 134.85 75.86" fill="#fff"/>
      <polygon points="68.69 75.86 61.01 89.16 53.34 75.86 68.69 75.86" fill="#fff"/>
      <rect x="71.17" y="142.38" width="13.98" height="46.6" rx="6.99" fill="#c6d033"/>
      <rect x="103.64" y="142.38" width="13.98" height="46.6" rx="6.99" fill="#c6d033"/>
      <circle cx="137.05" cy="51.75" r="1.3" fill="#fff"/>
      <circle cx="51.51" cy="51.75" r="1.3" fill="#fff"/>
      <path d="M57.18,97.45s34.2,11.24,73.95,0" fill="none" stroke="#39b54a" stroke-linecap="round" stroke-miterlimit="10" stroke-width="5"/>
      <path d="M57.18,109s34.2,11.24,73.95,0" fill="none" stroke="#39b54a" stroke-linecap="round" stroke-miterlimit="10" stroke-width="5"/>
      <path d="M57.18,119.89c0,1.82,34.22,15.69,73.95,0" fill="none" stroke="#39b54a" stroke-linecap="round" stroke-miterlimit="10" stroke-width="5"/>
      <path d="M113.55,18.9S133.83-1,164.43,29.56" fill="none" stroke="#39b54a" stroke-linecap="round" stroke-miterlimit="10" stroke-width="5"/>
      <path d="M75.17,21S48-3.07,26,18.9" fill="none" stroke="#39b54a" stroke-linecap="round" stroke-miterlimit="10" stroke-width="5"/>
      <circle cx="165.67" cy="28.42" r="7.38" fill="#e91476"/>
      <circle cx="26.01" cy="18.9" r="7.38" fill="#e91476"/>
    </g>
  </g>
</svg>
