<svg xmlns="http://www.w3.org/2000/svg" viewBox="0 0 200 200">
  <title>monster10</title>
  <g id="Layer_2" data-name="Layer 2">
    <g id="Layer_1-2" data-name="Layer 1">
      <rect width="200" height="200" fill="#d2b82b"/>
      <ellipse cx="103.64" cy="179.2" rx="94.17" ry="15.78" fill="#231f20" opacity="0.15"/>
      <path d="M124.17,138.85s-.11-54.57,44.92-70.66C169.09,68.19,174.07,115.67,124.17,138.85Z" fill="#007e6c"/>
      <path d="M124.17,138.85s-.11-54.57,44.92-70.66C169.09,68.19,150.93,94,124.17,138.85Z" fill="#018d76"/>
      <g>
        <path d="M85.14,137.22s.11-54.57-44.92-70.67C40.22,66.55,35.24,114,85.14,137.22Z" fill="#007e6c"/>
        <path d="M85.14,137.22s.11-54.57-44.92-70.67C40.22,66.55,58.37,92.31,85.14,137.22Z" fill="#018d76"/>
      </g>
      <path d="M86.45,57h40a6.76,6.76,0,0,1,6.76,6.76v83.4a26.76,26.76,0,0,1-26.76,26.76h0A26.76,26.76,0,0,1,79.7,147.16V63.76A6.76,6.76,0,0,1,86.45,57Z" fill="#b54599"/>
      <path d="M106.45,173.91h0c17.72-10.42,17.72-17.1,19.65-25.94l.35-91a6.76,6.76,0,0,1,6.76,6.76v83.4A26.76,26.76,0,0,1,106.45,173.91Z" fill="#853574"/>
      <path d="M133.21,139.31s35.41,4.87,35.41,43.13" fill="none" stroke="#231f20" stroke-miterlimit="10" stroke-width="6"/>
      <path d="M80.44,135.24S45,140.11,45,178.37" fill="none" stroke="#231f20" stroke-miterlimit="10" stroke-width="6"/>
      <path d="M29.58,181.64a15.46,15.46,0,0,1,30.91,0" fill="#50a045"/>
      <path d="M153.17,186.87a15.45,15.45,0,1,1,30.9,0" fill="#50a045"/>
      <rect x="92.42" y="100" width="30.07" height="60.76" rx="15.03" fill="#afbba7"/>
      <line x1="100" y1="112.11" x2="100" y2="117.91" fill="none" stroke="#4a8e7b" stroke-miterlimit="10"/>
      <line x1="106.45" y1="127.48" x2="106.45" y2="133.28" fill="none" stroke="#4a8e7b" stroke-miterlimit="10"/>
      <line x1="115.8" y1="131.1" x2="115.8" y2="136.89" fill="none" stroke="#4a8e7b" stroke-miterlimit="10"/>
      <line x1="107.45" y1="145.08" x2="107.45" y2="150.87" fill="none" stroke="#4a8e7b" stroke-miterlimit="10"/>
      <line x1="98.61" y1="136.41" x2="98.61" y2="142.21" fill="none" stroke="#4a8e7b" stroke-miterlimit="10"/>
      <line x1="112.08" y1="112.11" x2="112.08" y2="117.91" fill="none" stroke="#4a8e7b" stroke-miterlimit="10"/>
      <circle cx="120.85" cy="57" r="30.09" fill="#b54599"/>
      <circle cx="89.7" cy="57" r="30.09" fill="#b54599"/>
      <g>
        <circle cx="77.05" cy="57" r="11.6" fill="#fff"/>
        <g>
          <circle cx="78.55" cy="57.75" r="7.38" fill="#231f20"/>
          <circle cx="77.01" cy="55.21" r="1.85" fill="#fff"/>
        </g>
      </g>
      <g>
        <circle cx="130.05" cy="57" r="11.6" fill="#fff"/>
        <g>
          <circle cx="131.55" cy="57.75" r="7.38" fill="#231f20"/>
          <circle cx="130.01" cy="55.21" r="1.85" fill="#fff"/>
        </g>
      </g>
      <path d="M109.42,85.91a2.76,2.76,0,0,1-4.78,0L101.81,81l-5.22-9h20.88l-5.22,9Z" fill="#65bca6"/>
      <path d="M114.36,9.16S97.07,18.21,105,35.1C105,35.1,123.25,28.1,114.36,9.16Z" fill="#ee7697"/>
      <path d="M91.23,9.65s-5.83,18.62,11.71,25C102.94,34.62,110.91,16.76,91.23,9.65Z" fill="#e91476"/>
      <path d="M81.73,86.4c2.49,1.53,24.72,11.61,48.32-1" fill="none" stroke="#853574" stroke-linecap="round" stroke-miterlimit="10" stroke-width="3"/>
    </g>
  </g>
</svg>
